ffmpeg version 4.4.1-essentials_build-www.gyan.dev Copyright (c) 2000-2021 the FFmpeg developers
  built with gcc 11.2.0 (Rev1, Built by MSYS2 project)
  configuration: --enable-gpl --enable-version3 --enable-static --disable-w32threads --disable-autodetect --enable-fontconfig --enable-iconv --enable-gnutls --enable-libxml2 --enable-gmp --enable-lzma --enable-zlib --enable-libsrt --enable-libssh --enable-libzmq --enable-avisynth --enable-sdl2 --enable-libwebp --enable-libx264 --enable-libx265 --enable-libxvid --enable-libaom --enable-libopenjpeg --enable-libvpx --enable-libass --enable-libfreetype --enable-libfribidi --enable-libvidstab --enable-libvmaf --enable-libzimg --enable-amf --enable-cuda-llvm --enable-cuvid --enable-ffnvcodec --enable-nvdec --enable-nvenc --enable-d3d11va --enable-dxva2 --enable-libmfx --enable-libgme --enable-libopenmpt --enable-libopencore-amrwb --enable-libmp3lame --enable-libtheora --enable-libvo-amrwbenc --enable-libgsm --enable-libopencore-amrnb --enable-libopus --enable-libspeex --enable-libvorbis --enable-librubberband
  libavutil      56. 70.100 / 56. 70.100
  libavcodec     58.134.100 / 58.134.100
  libavformat    58. 76.100 / 58. 76.100
  libavdevice    58. 13.100 / 58. 13.100
  libavfilter     7.110.100 /  7.110.100
  libswscale      5.  9.100 /  5.  9.100
  libswresample   3.  9.100 /  3.  9.100
  libpostproc    55.  9.100 / 55.  9.100
Input #0, rawvideo, from 'pipe:':
  Duration: N/A, start: 0.000000, bitrate: 839808 kb/s
  Stream #0:0: Video: rawvideo (RGB[24] / 0x18424752), rgb24, 1080x1080, 839808 kb/s, 30 tbr, 30 tbn, 30 tbc
Stream mapping:
  Stream #0:0 -> #0:0 (rawvideo (native) -> h264 (libx264))
[swscaler @ 000002361a51a580] Warning: data is not aligned! This can lead to a speed loss
[libx264 @ 000002361a4d2d80] using cpu capabilities: MMX2 SSE2Fast SSSE3 SSE4.2 AVX FMA3 BMI2 AVX2
[libx264 @ 000002361a4d2d80] profile High, level 3.2, 4:2:0, 8-bit
[libx264 @ 000002361a4d2d80] 264 - core 164 r3075 66a5bc1 - H.264/MPEG-4 AVC codec - Copyleft 2003-2021 - http://www.videolan.org/x264.html - options: cabac=1 ref=3 deblock=1:0:0 analyse=0x3:0x113 me=hex subme=7 psy=1 psy_rd=1.00:0.00 mixed_ref=1 me_range=16 chroma_me=1 trellis=1 8x8dct=1 cqm=0 deadzone=21,11 fast_pskip=1 chroma_qp_offset=-2 threads=12 lookahead_threads=2 sliced_threads=0 nr=0 decimate=1 interlaced=0 bluray_compat=0 constrained_intra=0 bframes=3 b_pyramid=2 b_adapt=1 b_bias=0 direct=1 weightb=1 open_gop=0 weightp=2 keyint=250 keyint_min=25 scenecut=40 intra_refresh=0 rc_lookahead=40 rc=crf mbtree=1 crf=23.0 qcomp=0.60 qpmin=0 qpmax=69 qpstep=4 ip_ratio=1.40 aq=1:1.00
Output #0, mp4, to 'output.mp4':
  Metadata:
    encoder         : Lavf58.76.100
  Stream #0:0: Video: h264 (avc1 / 0x31637661), yuv420p(tv, progressive), 1080x1080, q=2-31, 30 fps, 15360 tbn
    Metadata:
      encoder         : Lavc58.134.100 libx264
    Side data:
      cpb: bitrate max/min/avg: 0/0/0 buffer size: 0 vbv_delay: N/A
frame=    1 fps=0.0 q=0.0 size=       0kB time=00:00:00.00 bitrate=N/A speed=   0x    frame=   17 fps=0.0 q=0.0 size=       0kB time=00:00:00.00 bitrate=N/A speed=   0x    frame=   32 fps= 32 q=0.0 size=       0kB time=00:00:00.00 bitrate=N/A speed=   0x    frame=   47 fps= 31 q=0.0 size=       0kB time=00:00:00.00 bitrate=N/A speed=   0x    frame=   62 fps= 30 q=29.0 size=       0kB time=00:00:00.10 bitrate=   3.8kbits/s speed=0.0489x    frame=   77 fps= 30 q=29.0 size=       0kB time=00:00:00.60 bitrate=   0.6kbits/s speed=0.236x    frame=   93 fps= 30 q=29.0 size=       0kB time=00:00:01.13 bitrate=   0.3kbits/s speed=0.368x    frame=  109 fps= 30 q=29.0 size=       0kB time=00:00:01.66 bitrate=   0.2kbits/s speed=0.462x    frame=  124 fps= 30 q=29.0 size=       0kB time=00:00:02.16 bitrate=   0.2kbits/s speed=0.527x    frame=  139 fps= 30 q=29.0 size=       0kB time=00:00:02.66 bitrate=   0.1kbits/s speed=0.578x    frame=  155 fps= 30 q=29.0 size=       0kB time=00:00:03.20 bitrate=   0.1kbits/s speed=0.622x    frame=  171 fps= 30 q=29.0 size=       0kB time=00:00:03.73 bitrate=   0.1kbits/s speed=0.657x    frame=  187 fps= 30 q=29.0 size=       0kB time=00:00:04.26 bitrate=   0.1kbits/s speed=0.687x    frame=  202 fps= 30 q=29.0 size=     256kB time=00:00:04.76 bitrate= 440.0kbits/s speed=0.71x    frame=  217 fps= 30 q=29.0 size=     256kB time=00:00:05.26 bitrate= 398.3kbits/s speed=0.728x    frame=  232 fps= 30 q=29.0 size=     256kB time=00:00:05.76 bitrate= 363.7kbits/s speed=0.745x    frame=  247 fps= 30 q=29.0 size=     256kB time=00:00:06.26 bitrate= 334.7kbits/s speed=0.76x    frame=  262 fps= 30 q=29.0 size=     256kB time=00:00:06.76 bitrate= 310.0kbits/s speed=0.77x    frame=  274 fps= 29 q=29.0 size=     256kB time=00:00:07.16 bitrate= 292.7kbits/s speed=0.771x    frame=  287 fps= 29 q=29.0 size=     256kB time=00:00:07.60 bitrate= 276.0kbits/s speed=0.774x    frame=  300 fps= 29 q=29.0 size=     256kB time=00:00:08.03 bitrate= 261.1kbits/s speed=0.775x    frame=  314 fps= 29 q=29.0 size=     256kB time=00:00:08.50 bitrate= 246.8kbits/s speed=0.78x    frame=  329 fps= 29 q=29.0 size=     256kB time=00:00:09.00 bitrate= 233.1kbits/s speed=0.788x    frame=  342 fps= 29 q=29.0 size=     512kB time=00:00:09.43 bitrate= 444.7kbits/s speed=0.791x    frame=  357 fps= 29 q=29.0 size=     512kB time=00:00:09.93 bitrate= 422.3kbits/s speed=0.798x    frame=  372 fps= 29 q=29.0 size=     512kB time=00:00:10.43 bitrate= 402.0kbits/s speed=0.804x    frame=  387 fps= 29 q=29.0 size=     512kB time=00:00:10.93 bitrate= 383.7kbits/s speed=0.811x    frame=  402 fps= 29 q=29.0 size=     512kB time=00:00:11.43 bitrate= 366.9kbits/s speed=0.816x    frame=  417 fps= 29 q=29.0 size=     512kB time=00:00:11.93 bitrate= 351.5kbits/s speed=0.821x    frame=  433 fps= 29 q=29.0 size=     512kB time=00:00:12.46 bitrate= 336.5kbits/s speed=0.827x    frame=  449 fps= 29 q=29.0 size=     512kB time=00:00:13.00 bitrate= 322.7kbits/s speed=0.835x    frame=  462 fps= 29 q=29.0 size=     512kB time=00:00:13.43 bitrate= 312.3kbits/s speed=0.836x    frame=  477 fps= 29 q=29.0 size=     768kB time=00:00:13.93 bitrate= 451.6kbits/s speed=0.839x    frame=  492 fps= 29 q=29.0 size=     768kB time=00:00:14.43 bitrate= 435.9kbits/s speed=0.843x    frame=  507 fps= 29 q=29.0 size=     768kB time=00:00:14.93 bitrate= 421.3kbits/s speed=0.847x    frame=  523 fps= 29 q=29.0 size=     768kB time=00:00:15.46 bitrate= 406.8kbits/s speed=0.851x    frame=  539 fps= 29 q=29.0 size=     768kB time=00:00:16.00 bitrate= 393.2kbits/s speed=0.856x    frame=  555 fps= 29 q=29.0 size=     768kB time=00:00:16.53 bitrate= 380.6kbits/s speed=0.86x    frame=  570 fps= 29 q=29.0 size=     768kB time=00:00:17.03 bitrate= 369.4kbits/s speed=0.863x    frame=  586 fps= 29 q=29.0 size=     768kB time=00:00:17.56 bitrate= 358.2kbits/s speed=0.868x    frame=  601 fps= 29 q=29.0 size=     768kB time=00:00:18.06 bitrate= 348.3kbits/s speed=0.871x    frame=  617 fps= 29 q=29.0 size=    1024kB time=00:00:18.60 bitrate= 451.0kbits/s speed=0.874x    frame=  632 fps= 29 q=29.0 size=    1024kB time=00:00:19.10 bitrate= 439.2kbits/s speed=0.876x    frame=  648 fps= 29 q=29.0 size=    1024kB time=00:00:19.63 bitrate= 427.3kbits/s speed=0.88x    frame=  664 fps= 29 q=29.0 size=    1024kB time=00:00:20.16 bitrate= 416.0kbits/s speed=0.883x    frame=  679 fps= 29 q=29.0 size=    1024kB time=00:00:20.66 bitrate= 405.9kbits/s speed=0.885x    frame=  695 fps= 29 q=29.0 size=    1024kB time=00:00:21.20 bitrate= 395.7kbits/s speed=0.888x    frame=  711 fps= 29 q=29.0 size=    1024kB time=00:00:21.73 bitrate= 386.0kbits/s speed=0.891x    frame=  726 fps= 29 q=29.0 size=    1024kB time=00:00:22.23 bitrate= 377.3kbits/s speed=0.893x    frame=  741 fps= 29 q=29.0 size=    1024kB time=00:00:22.73 bitrate= 369.0kbits/s speed=0.895x    frame=  756 fps= 29 q=29.0 size=    1024kB time=00:00:23.23 bitrate= 361.1kbits/s speed=0.897x    frame=  772 fps= 29 q=29.0 size=    1280kB time=00:00:23.76 bitrate= 441.2kbits/s speed=0.899x    frame=  788 fps= 29 q=29.0 size=    1280kB time=00:00:24.30 bitrate= 431.5kbits/s speed=0.902x    frame=  803 fps= 29 q=29.0 size=    1280kB time=00:00:24.80 bitrate= 422.8kbits/s speed=0.903x    frame=  819 fps= 29 q=29.0 size=    1280kB time=00:00:25.33 bitrate= 413.9kbits/s speed=0.905x    frame=  835 fps= 29 q=29.0 size=    1280kB time=00:00:25.86 bitrate= 405.4kbits/s speed=0.907x    frame=  851 fps= 29 q=29.0 size=    1280kB time=00:00:26.40 bitrate= 397.2kbits/s speed=0.909x    frame=  866 fps= 29 q=29.0 size=    1280kB time=00:00:26.90 bitrate= 389.8kbits/s speed=0.91x    frame=  882 fps= 29 q=29.0 size=    1280kB time=00:00:27.43 bitrate= 382.2kbits/s speed=0.912x    frame=  898 fps= 29 q=29.0 size=    1280kB time=00:00:27.96 bitrate= 375.0kbits/s speed=0.914x    frame=  914 fps= 29 q=29.0 size=    1536kB time=00:00:28.50 bitrate= 441.5kbits/s speed=0.915x    frame=  929 fps= 29 q=29.0 size=    1536kB time=00:00:29.00 bitrate= 433.9kbits/s speed=0.916x    frame=  945 fps= 29 q=29.0 size=    1536kB time=00:00:29.53 bitrate= 426.1kbits/s speed=0.918x    frame=  960 fps= 29 q=29.0 size=    1536kB time=00:00:30.03 bitrate= 419.0kbits/s speed=0.919x    frame=  976 fps= 29 q=29.0 size=    1536kB time=00:00:30.56 bitrate= 411.7kbits/s speed=0.921x    frame=  991 fps= 29 q=29.0 size=    1536kB time=00:00:31.06 bitrate= 405.0kbits/s speed=0.922x    frame= 1006 fps= 29 q=29.0 size=    1536kB time=00:00:31.56 bitrate= 398.6kbits/s speed=0.923x    frame= 1021 fps= 29 q=29.0 size=    1536kB time=00:00:32.06 bitrate= 392.4kbits/s speed=0.924x    frame= 1037 fps= 29 q=29.0 size=    1536kB time=00:00:32.60 bitrate= 386.0kbits/s speed=0.926x    frame= 1052 fps= 29 q=29.0 size=    1536kB time=00:00:33.10 bitrate= 380.2kbits/s speed=0.927x    frame= 1068 fps= 29 q=29.0 size=    1792kB time=00:00:33.63 bitrate= 436.5kbits/s speed=0.928x    frame= 1083 fps= 29 q=29.0 size=    1792kB time=00:00:34.13 bitrate= 430.1kbits/s speed=0.929x    frame= 1099 fps= 29 q=29.0 size=    1792kB time=00:00:34.66 bitrate= 423.5kbits/s speed=0.93x    frame= 1115 fps= 30 q=29.0 size=    1792kB time=00:00:35.20 bitrate= 417.1kbits/s speed=0.932x    frame= 1130 fps= 30 q=29.0 size=    1792kB time=00:00:35.70 bitrate= 411.2kbits/s speed=0.932x    frame= 1146 fps= 30 q=29.0 size=    1792kB time=00:00:36.23 bitrate= 405.2kbits/s speed=0.933x    frame= 1161 fps= 30 q=29.0 size=    1792kB time=00:00:36.73 bitrate= 399.6kbits/s speed=0.934x    frame= 1176 fps= 30 q=29.0 size=    1792kB time=00:00:37.23 bitrate= 394.3kbits/s speed=0.935x    frame= 1191 fps= 30 q=29.0 size=    1792kB time=00:00:37.73 bitrate= 389.1kbits/s speed=0.936x    frame= 1205 fps= 30 q=29.0 size=    2048kB time=00:00:38.20 bitrate= 439.2kbits/s speed=0.935x    frame= 1221 fps= 30 q=29.0 size=    2048kB time=00:00:38.73 bitrate= 433.2kbits/s speed=0.937x    frame= 1237 fps= 30 q=29.0 size=    2048kB time=00:00:39.26 bitrate= 427.3kbits/s speed=0.937x    frame= 1253 fps= 30 q=29.0 size=    2048kB time=00:00:39.80 bitrate= 421.5kbits/s speed=0.938x    frame= 1269 fps= 30 q=29.0 size=    2048kB time=00:00:40.33 bitrate= 416.0kbits/s speed=0.939x    frame= 1284 fps= 30 q=29.0 size=    2048kB time=00:00:40.83 bitrate= 410.9kbits/s speed=0.94x    frame= 1300 fps= 30 q=29.0 size=    2048kB time=00:00:41.36 bitrate= 405.6kbits/s speed=0.94x    frame= 1315 fps= 30 q=29.0 size=    2048kB time=00:00:41.86 bitrate= 400.7kbits/s speed=0.941x    frame= 1330 fps= 30 q=29.0 size=    2048kB time=00:00:42.36 bitrate= 396.0kbits/s speed=0.942x    frame= 1346 fps= 30 q=29.0 size=    2304kB time=00:00:42.90 bitrate= 440.0kbits/s speed=0.943x    frame= 1362 fps= 30 q=29.0 size=    2304kB time=00:00:43.43 bitrate= 434.6kbits/s speed=0.943x    frame= 1378 fps= 30 q=29.0 size=    2304kB time=00:00:43.96 bitrate= 429.3kbits/s speed=0.944x    frame= 1393 fps= 30 q=29.0 size=    2304kB time=00:00:44.46 bitrate= 424.5kbits/s speed=0.944x    frame= 1409 fps= 30 q=29.0 size=    2304kB time=00:00:45.00 bitrate= 419.4kbits/s speed=0.945x    frame= 1424 fps= 30 q=29.0 size=    2304kB time=00:00:45.50 bitrate= 414.8kbits/s speed=0.946x    frame= 1439 fps= 30 q=29.0 size=    2304kB time=00:00:46.00 bitrate= 410.3kbits/s speed=0.946x    frame= 1454 fps= 30 q=29.0 size=    2304kB time=00:00:46.50 bitrate= 405.9kbits/s speed=0.947x    frame= 1470 fps= 30 q=29.0 size=    2304kB time=00:00:47.03 bitrate= 401.3kbits/s speed=0.947x    frame= 1486 fps= 30 q=29.0 size=    2304kB time=00:00:47.56 bitrate= 396.8kbits/s speed=0.948x    frame= 1501 fps= 30 q=29.0 size=    2560kB time=00:00:48.06 bitrate= 436.3kbits/s speed=0.949x    frame= 1517 fps= 30 q=29.0 size=    2560kB time=00:00:48.60 bitrate= 431.5kbits/s speed=0.949x    frame= 1532 fps= 30 q=29.0 size=    2560kB time=00:00:49.10 bitrate= 427.1kbits/s speed=0.95x    frame= 1548 fps= 30 q=29.0 size=    2560kB time=00:00:49.63 bitrate= 422.5kbits/s speed=0.951x    frame= 1563 fps= 30 q=29.0 size=    2560kB time=00:00:50.13 bitrate= 418.3kbits/s speed=0.951x    frame= 1579 fps= 30 q=29.0 size=    2560kB time=00:00:50.66 bitrate= 413.9kbits/s speed=0.952x    frame= 1595 fps= 30 q=29.0 size=    2560kB time=00:00:51.20 bitrate= 409.6kbits/s speed=0.952x    frame= 1610 fps= 30 q=29.0 size=    2560kB time=00:00:51.70 bitrate= 405.6kbits/s speed=0.953x    frame= 1625 fps= 30 q=29.0 size=    2560kB time=00:00:52.20 bitrate= 401.8kbits/s speed=0.953x    frame= 1641 fps= 30 q=29.0 size=    2816kB time=00:00:52.73 bitrate= 437.5kbits/s speed=0.953x    frame= 1657 fps= 30 q=29.0 size=    2816kB time=00:00:53.26 bitrate= 433.1kbits/s speed=0.954x    frame= 1673 fps= 30 q=29.0 size=    2816kB time=00:00:53.80 bitrate= 428.8kbits/s speed=0.955x    frame= 1689 fps= 30 q=29.0 size=    2816kB time=00:00:54.33 bitrate= 424.6kbits/s speed=0.955x    frame= 1704 fps= 30 q=29.0 size=    2816kB time=00:00:54.83 bitrate= 420.7kbits/s speed=0.955x    frame= 1720 fps= 30 q=29.0 size=    2816kB time=00:00:55.36 bitrate= 416.7kbits/s speed=0.956x    frame= 1736 fps= 30 q=29.0 size=    2816kB time=00:00:55.90 bitrate= 412.7kbits/s speed=0.956x    frame= 1752 fps= 30 q=29.0 size=    2816kB time=00:00:56.43 bitrate= 408.8kbits/s speed=0.957x    frame= 1768 fps= 30 q=29.0 size=    2816kB time=00:00:56.96 bitrate= 405.0kbits/s speed=0.957x    frame= 1783 fps= 30 q=29.0 size=    2816kB time=00:00:57.46 bitrate= 401.4kbits/s speed=0.958x    [rawvideo @ 000002361a4bc680] Packet corrupt (stream = 0, dts = 1791).
pipe:: corrupt input packet in stream 0
[rawvideo @ 000002361a4d04c0] Invalid buffer size, packet size 1216 < expected frame_size 3499200
Error while decoding stream #0:0: Invalid argument
frame= 1791 fps= 30 q=-1.0 Lsize=    3203kB time=00:00:59.60 bitrate= 440.2kbits/s speed=0.984x    
video:3181kB audio:0kB subtitle:0kB other streams:0kB global headers:0kB muxing overhead: 0.686513%
[libx264 @ 000002361a4d2d80] frame I:8     Avg QP:13.42  size: 23435
[libx264 @ 000002361a4d2d80] frame P:451   Avg QP:22.96  size:  3897
[libx264 @ 000002361a4d2d80] frame B:1332  Avg QP:25.71  size:   985
[libx264 @ 000002361a4d2d80] consecutive B-frames:  0.8%  0.0%  0.0% 99.2%
[libx264 @ 000002361a4d2d80] mb I  I16..4: 48.7% 49.2%  2.2%
[libx264 @ 000002361a4d2d80] mb P  I16..4:  0.1%  1.2%  0.0%  P16..4:  9.7%  2.2%  1.8%  0.0%  0.0%    skip:85.0%
[libx264 @ 000002361a4d2d80] mb B  I16..4:  0.0%  0.0%  0.0%  B16..8:  9.6%  0.7%  0.1%  direct: 0.2%  skip:89.4%  L0:42.9% L1:50.8% BI: 6.4%
[libx264 @ 000002361a4d2d80] 8x8 transform intra:67.2% inter:85.9%
[libx264 @ 000002361a4d2d80] coded y,uvDC,uvAC intra: 20.6% 19.9% 5.6% inter: 1.1% 4.4% 0.3%
[libx264 @ 000002361a4d2d80] i16 v,h,dc,p: 91%  6%  3%  0%
[libx264 @ 000002361a4d2d80] i8 v,h,dc,ddl,ddr,vr,hd,vl,hu: 18%  9% 68%  2%  1%  0%  0%  1%  1%
[libx264 @ 000002361a4d2d80] i4 v,h,dc,ddl,ddr,vr,hd,vl,hu: 15% 13% 57%  4%  3%  2%  2%  2%  2%
[libx264 @ 000002361a4d2d80] i8c dc,h,v,p: 62% 19%  8% 11%
[libx264 @ 000002361a4d2d80] Weighted P-Frames: Y:0.0% UV:0.0%
[libx264 @ 000002361a4d2d80] ref P L0: 55.7% 10.9% 28.2%  5.3%
[libx264 @ 000002361a4d2d80] ref B L0: 82.3% 16.6%  1.1%
[libx264 @ 000002361a4d2d80] ref B L1: 96.2%  3.8%
[libx264 @ 000002361a4d2d80] kb/s:436.38
